Coordinates
version=1
nRows=14
nColumns=24
inDegrees=yes

Units are S.I. units (second, meters, Newtons, ...)
Angles are in degrees.

endheader
time	pelvis_tilt	pelvis_list	pelvis_rotation	pelvis_tx	pelvis_ty	pelvis_tz	hip_flexion_r	hip_adduction_r	hip_rotation_r	knee_angle_r	ankle_angle_r	subtalar_angle_r	mtp_angle_r	hip_flexion_l	hip_adduction_l	hip_rotation_l	knee_angle_l	ankle_angle_l	subtalar_angle_l	mtp_angle_l	lumbar_extension	lumbar_bending	lumbar_rotation
      0.66700000	      1.31407838	      0.04913270	     -3.24449430	     -0.48334257	      1.06698763	      0.32155851	     10.66787139	      4.64074554	     -0.02624482	    -17.79382703	      5.40829045	     -9.78054222	      0.74374956	     18.81414536	     -1.19993859	     -4.50650439	    -66.20066291	      5.95665996	     -1.12353623	      2.90695751	     -1.65107506	      3.32720385	      0.46869257
      0.67116667	      1.34053880	      0.13203104	     -3.23022525	     -0.47794260	      1.06766871	      0.32169214	     10.25300333	      4.56078122	      0.09874532	    -17.68196780	      5.64032315	     -9.97009635	      0.74179205	     19.25628370	     -1.07108354	     -4.37830121	    -65.58851283	      6.51974888	     -1.45759374	      2.87129083	     -1.59007434	      3.12887808	      0.54237022
      0.67533333	      1.33884053	      0.21619248	     -3.23634453	     -0.47255869	      1.06828458	      0.32184845	      9.87228280	      4.48219142	      0.21653009	    -17.55479819	      5.77483595	    -10.09026014	      0.73963708	     19.70677407	     -0.95064515	     -4.28566914	    -64.88092189	      6.84111866	     -1.66393232	      2.83130563	     -1.60525095	      3.04730467	      0.58594244
      0.67950000	      1.30418695	      0.28587857	     -3.21980769	     -0.46722479	      1.06879676	      0.32191012	      9.52732593	      4.40903413	      0.31652479	    -17.42306384	      5.83644501	    -10.13486409	      0.73888415	     20.18303658	     -0.83340742	     -4.16209988	    -64.10376238	      6.99353889	     -1.74695949	      2.81750988	     -1.66912352	      3.02762765	      0.59732840
      0.68366667	      1.32871816	      0.35622421	     -3.23525860	     -0.46176261	      1.06942894	      0.32209045	      9.10002192	      4.34385700	      0.41103328	    -17.26922280	      6.03404767	    -10.30043572	      0.73570744	     20.54525432	     -0.73281685	     -4.11703055	    -63.23719186	      7.38701698	     -2.10452868	      2.75303526	     -1.66067226	      2.87956285	      0.65884636
      0.68783333	      1.28906161	      0.40405815	     -3.20338652	     -0.45637705	      1.06989008	      0.32213491	      8.74110424	      4.29072719	      0.50122620	    -17.10361697	      6.09445097	    -10.33666619	      0.73487449	     20.97550109	     -0.63691198	     -3.99834619	    -62.30805061	      7.51635578	     -2.19054354	      2.73566432	     -1.68614946	      2.87762566	      0.67042763
      0.69200000	      1.31234146	      0.45566585	     -3.18376678	     -0.45078779	      1.07049572	      0.32225648	      8.28441139	      4.23618863	      0.55031957	    -16.89839185	      6.23629389	    -10.43452104	      0.73299047	     21.28098830	     -0.54409927	     -3.93516150	    -61.27648974	      7.75200295	     -2.43965065	      2.69748843	     -1.56993553	      2.78345160	      0.71363967
      0.69616667	      1.30685507	      0.50123257	     -3.17292132	     -0.44530248	      1.07098145	      0.32232674	      7.86927449	      4.18458950	      0.63007072	    -16.70589116	      6.36956444	    -10.52289683	      0.73071377	     21.60449385	     -0.45601769	     -3.87961468	    -60.18471076	      7.94145482	     -2.72089402	      2.64848285	     -1.56384596	      2.72374673	      0.74438404
      0.70033333	      1.29723994	      0.53598786	     -3.15622911	     -0.43981870	      1.07143615	      0.32238701	      7.45434854	      4.14412426	      0.70394237	    -16.50370955	      6.48874151	    -10.59824060	      0.72800133	     21.90752671	     -0.37780984	     -3.82719079	    -59.01953923	      8.07760140	     -3.00781659	      2.59360813	     -1.55163064	      2.68571387	      0.77248162
      0.70450000	      1.31827499	      0.56950631	     -3.16627405	     -0.43440385	      1.07188953	      0.32244793	      7.01229771	      4.10220285	      0.80036181	    -16.30581263	      6.62912560	    -10.67389341	      0.71950736	     22.15335649	     -0.30581612	     -3.82581217	    -57.77730529	      8.07144581	     -3.58889652	      2.42711538	     -1.67718388	      2.62782468	      0.82525070
      0.70866667	      1.28533237	      0.57759042	     -3.11423745	     -0.42882863	      1.07224924	      0.32242949	      6.60043648	      4.08407127	      0.82888754	    -16.07026639	      6.70901653	    -10.70936083	      0.71671447	     22.42427557	     -0.24211144	     -3.74938711	    -56.47200532	      8.17453201	     -3.72499890	      2.38133192	     -1.58797164	      2.65743900	      0.84150262
      0.71283333	      1.25059027	      0.58741168	     -3.07550879	     -0.42325869	      1.07257253	      0.32241784	      6.19012005	      4.06590368	      0.86987844	    -15.83168811	      6.81868551	    -10.76762260	      0.71323593	     22.66788968	     -0.17946717	     -3.70366462	    -55.09564842	      8.26943892	     -3.97318290	      2.32841401	     -1.50976078	      2.66080633	      0.85834697
      0.71700000	      1.28246316	      0.60982778	     -3.08230577	     -0.41776993	      1.07295788	      0.32242640	      5.71513104	      4.03083208	      0.96726255	    -15.60073560	      6.96981679	    -10.84187842	      0.70054787	     22.80859359	     -0.11244873	     -3.73393622	    -53.62543329	      8.14564369	     -4.67803059	      2.14974099	     -1.63359522	      2.56957688	      0.89302652
      0.72116667	      1.22779172	      0.59538428	     -3.02446926	     -0.41215752	      1.07318162	      0.32236136	      5.31491744	      4.03678248	      0.98662965	    -15.34622615	      7.04438643	    -10.87389610	      0.69624550	     23.01802860	     -0.06939787	     -3.68724053	    -52.12076689	      8.20621530	     -4.82477952	      2.09915946	     -1.51030889	      2.66910296	      0.89857227
